# Blender v2.83.0 OBJ File: 'house.blend'
# www.blender.org
mtllib house.mtl
o Cube
v 10.000000 0.000000 -9.000000
v -10.000000 0.000000 -9.000000
v 10.000000 0.000000 10.000000
v -10.000000 0.000000 10.000000
v 10.000000 6.000000 -9.000000
v -10.000000 6.000000 -9.000000
v 10.000000 6.000000 10.000000
v -10.000000 6.000000 10.000000
v 11.007066 6.004654 -9.000000
v -11.007066 6.004654 -9.000000
v 11.007066 6.004654 10.000000
v -11.007066 6.004654 10.000000
v 0.000000 0.000000 -9.000000
v 0.000000 0.000000 10.000000
v 0.000000 6.000000 -9.000000
v 0.000000 6.000000 10.000000
v 0.000000 11.407427 -9.000000
v 0.000000 11.407427 10.000000
v 10.000000 0.000000 -1.158591
v 10.000000 0.000000 -4.610638
v -10.000000 0.000000 -4.610638
v -10.000000 0.000000 -1.158591
v 10.000000 6.000000 -1.158591
v 10.000000 6.000000 -4.610638
v -10.000000 6.000000 -4.610638
v -10.000000 6.000000 -1.158591
v 11.007066 6.004654 -1.158591
v 11.007066 6.004654 -4.610638
v -11.007066 6.004654 -4.610638
v -11.007066 6.004654 -1.158591
v 0.000000 11.407427 -1.158591
v 0.000000 11.407427 -4.610638
v 0.000000 0.000000 -4.610638
v 0.000000 0.000000 -1.158591
v -10.000000 0.222509 -9.000000
v -10.000000 5.307766 -9.000000
v 10.000000 5.307766 -9.000000
v 10.000000 0.222509 -9.000000
v -10.000000 0.222509 10.000000
v -10.000000 5.307766 10.000000
v 10.000000 5.307766 10.000000
v 10.000000 0.222509 10.000000
v 0.000000 0.222509 10.000000
v 0.000000 5.307766 10.000000
v 0.000000 0.222509 -9.000000
v 0.000000 5.307766 -9.000000
v 10.000000 0.222509 -1.158591
v 10.000000 5.307766 -1.158591
v 10.000000 0.222509 -4.610638
v 10.000000 5.307766 -4.610638
v -10.000000 0.222509 -4.610638
v -10.000000 5.307766 -4.610638
v -10.000000 0.222509 -1.158591
v -10.000000 5.307766 -1.158591
v -9.509854 0.222509 -4.610638
v -9.509854 5.307766 -4.610638
v -9.509854 0.222509 -1.158591
v -9.509854 5.307766 -1.158591
v 9.768824 0.222509 -4.610638
v 9.768824 5.307766 -4.610638
v 9.768824 0.222509 -1.158591
v 9.768824 5.307766 -1.158591
v -9.509854 5.989560 -1.158591
v -9.509854 5.989560 -4.610638
v 9.768824 5.989560 -1.158591
v 9.768824 5.989560 -4.610638
v -9.509854 0.222509 9.709627
v -9.509854 5.307766 9.709627
v 9.768824 0.222509 9.709627
v 9.768824 5.307766 9.709627
v 9.768824 5.989560 9.709627
v -9.509854 5.989560 9.709627
v -9.509854 0.222509 -8.719385
v -9.509854 5.307766 -8.719385
v 9.768824 0.222509 -8.719385
v 9.768824 5.307766 -8.719385
v 9.768824 5.989560 -8.719385
v -9.509854 5.989560 -8.719385
v -10.000000 0.000000 1.191825
v -10.000000 0.000000 5.654503
v -10.000000 6.000000 1.191825
v -10.000000 6.000000 5.654503
v -11.007066 6.004654 1.191825
v -11.007066 6.004654 5.654503
v 0.000000 0.000000 1.191825
v 0.000000 0.000000 5.654503
v 10.000000 0.000000 5.654502
v 10.000000 0.000000 1.191824
v 10.000000 6.000000 5.654502
v 10.000000 6.000000 1.191824
v 11.007066 6.004654 5.654502
v 11.007066 6.004654 1.191824
v 0.000000 11.407427 5.654502
v 0.000000 11.407427 1.191824
v 10.000000 0.222509 1.191825
v 10.000000 0.222509 5.654503
v 10.000000 5.307766 1.191825
v 10.000000 5.307766 5.654503
v -10.000000 0.222509 5.654502
v -10.000000 0.222509 1.191824
v -10.000000 5.307766 5.654502
v -10.000000 5.307766 1.191824
v -10.000000 1.863337 -9.000000
v 10.000000 1.863337 -9.000000
v -10.000000 1.863337 10.000000
v 10.000000 1.863337 10.000000
v 0.000000 1.863337 10.000000
v 0.000000 1.863337 -9.000000
v 10.000000 1.863337 -1.158591
v 10.000000 1.863337 -4.610638
v -10.000000 1.863337 -4.610638
v -10.000000 1.863337 -1.158591
v -9.509854 1.863337 -4.610638
v -9.509854 1.863337 -1.158591
v 9.768824 1.863337 -4.610638
v 9.768824 1.863337 -1.158591
v -9.509854 1.863337 9.709627
v 9.768824 1.863337 9.709627
v -9.509854 1.863337 -8.719385
v 9.768824 1.863337 -8.719385
v -10.000000 1.863337 1.191824
v -10.000000 1.863337 5.654502
v 10.000000 1.863337 5.654503
v 10.000000 1.863337 1.191825
v -9.509854 5.989560 1.174898
v -9.509854 5.307766 1.174899
v 9.768824 0.222509 1.174898
v 9.768824 5.307766 1.190958
v -9.509854 0.222509 1.174899
v 9.768824 5.989560 1.174899
v -9.509854 1.863337 1.174898
v 9.768824 1.863337 1.190957
v -9.509854 5.989560 5.579611
v 9.768824 0.222509 5.579611
v -9.509854 1.863337 5.579611
v 9.768824 1.863337 5.653779
v -9.509854 5.307766 5.579611
v 9.768824 5.307766 5.653779
v -9.509854 0.222509 5.579611
v 9.768824 5.989560 5.579611
vt 0.856587 0.218139
vt 0.856587 0.237300
vt 0.812934 0.237300
vt 0.812934 0.218139
vt 0.554164 0.120889
vt 0.554428 0.015579
vt 0.578831 0.015646
vt 0.578547 0.120944
vt 0.556803 0.280080
vt 0.555552 0.018211
vt 0.573576 0.018120
vt 0.574950 0.280081
vt 0.537400 0.120857
vt 0.537652 0.015535
vt 0.537521 0.119985
vt 0.537781 0.013646
vt 0.554549 0.013692
vt 0.554276 0.120017
vt 0.558106 0.280080
vt 0.556855 0.018211
vt 0.574879 0.018120
vt 0.576253 0.280081
vt 0.190358 0.072902
vt 0.015076 0.072902
vt 0.015076 0.010155
vt 0.190358 0.010155
vt 0.578941 0.013760
vt 0.578644 0.120073
vt 0.445683 0.268710
vt 0.445063 0.150378
vt 0.448541 0.032748
vt 0.561448 0.268676
vt 0.445683 0.270654
vt 0.445063 0.152323
vt 0.448541 0.034692
vt 0.561448 0.270621
vt 0.445132 0.389005
vt 0.448680 0.506639
vt 0.445132 0.387060
vt 0.448680 0.504694
vt 0.365638 0.072902
vt 0.365638 0.010155
vt 0.556913 0.542000
vt 0.575033 0.542083
vt 0.555610 0.542000
vt 0.573730 0.542083
vt 0.900239 0.218139
vt 0.900239 0.237300
vt 0.900239 0.144792
vt 0.900239 0.203070
vt 0.856587 0.203070
vt 0.856587 0.144792
vt 0.365638 0.163290
vt 0.190357 0.163290
vt 0.190357 0.123237
vt 0.365638 0.123237
vt 0.365638 0.122249
vt 0.190357 0.122249
vt 0.554252 0.286323
vt 0.554152 0.229253
vt 0.578452 0.229256
vt 0.578561 0.286321
vt 0.554152 0.203501
vt 0.578452 0.203516
vt 0.015076 0.163290
vt 0.015076 0.123237
vt 0.015076 0.122249
vt 0.537541 0.286324
vt 0.537444 0.229253
vt 0.537444 0.203501
vt 0.537686 0.740145
vt 0.537463 0.633843
vt 0.554216 0.633816
vt 0.554448 0.740105
vt 0.537416 0.550338
vt 0.554123 0.550334
vt 0.578581 0.633769
vt 0.578832 0.740047
vt 0.578424 0.550313
vt 0.812934 0.203070
vt 0.812934 0.144792
vt 0.408848 0.634038
vt 0.408930 0.549898
vt 0.414436 0.549904
vt 0.414258 0.634036
vt 0.942185 0.119119
vt 0.942185 0.233210
vt 0.925986 0.233210
vt 0.925986 0.119119
vt 0.409068 0.740536
vt 0.414466 0.740525
vt 0.454275 0.740413
vt 0.454087 0.633966
vt 0.409011 0.203943
vt 0.408864 0.119806
vt 0.414276 0.119806
vt 0.414517 0.203933
vt 0.454185 0.203736
vt 0.454113 0.119861
vt 0.409071 0.286244
vt 0.409011 0.229332
vt 0.414517 0.229330
vt 0.414575 0.286245
vt 0.454253 0.286275
vt 0.454185 0.229295
vt 0.414049 0.541291
vt 0.414816 0.279823
vt 0.420633 0.279823
vt 0.419866 0.541309
vt 0.465645 0.541682
vt 0.466454 0.280066
vt 0.415616 0.544056
vt 0.416384 0.282588
vt 0.422201 0.282587
vt 0.421434 0.544073
vt 0.466948 0.541682
vt 0.467756 0.280066
vt 0.415617 0.021254
vt 0.421432 0.021237
vt 0.466925 0.018586
vt 0.409037 0.013258
vt 0.414438 0.013267
vt 0.454278 0.013365
vt 0.408703 0.120657
vt 0.408873 0.015165
vt 0.414275 0.015174
vt 0.414113 0.120657
vt 0.453953 0.120711
vt 0.454119 0.015267
vt 0.414049 0.018489
vt 0.419864 0.018472
vt 0.465622 0.018586
vt 0.010155 0.687397
vt 0.010155 0.638049
vt 0.285747 0.638049
vt 0.285747 0.687397
vt 0.942185 0.401279
vt 0.942185 0.515370
vt 0.925986 0.515370
vt 0.925986 0.401279
vt 0.942185 0.287440
vt 0.925986 0.287440
vt 0.942185 0.629208
vt 0.942185 0.683438
vt 0.925986 0.683438
vt 0.925986 0.629208
vt 0.661987 0.623993
vt 0.661987 0.540508
vt 0.745288 0.540508
vt 0.745288 0.623993
vt 0.761777 0.623993
vt 0.761777 0.723360
vt 0.745288 0.723360
vt 0.661987 0.109730
vt 0.622305 0.111524
vt 0.622305 0.011643
vt 0.661987 0.011643
vt 0.745309 0.545132
vt 0.761798 0.545132
vt 0.761798 0.624347
vt 0.745309 0.624347
vt 0.446367 0.782163
vt 0.482749 0.782163
vt 0.482749 0.985347
vt 0.446367 0.985347
vt 0.761777 0.540508
vt 0.745309 0.229747
vt 0.745309 0.163535
vt 0.761798 0.163535
vt 0.761798 0.229747
vt 0.285747 0.746132
vt 0.010155 0.746132
vt 0.747339 0.706083
vt 0.747339 0.239844
vt 0.763828 0.239844
vt 0.763829 0.706083
vt 0.664039 0.239844
vt 0.664039 0.706082
vt 0.662009 0.569973
vt 0.745309 0.569973
vt 0.745309 0.649188
vt 0.662009 0.649188
vt 0.285747 0.550350
vt 0.010155 0.550350
vt 0.010155 0.491310
vt 0.285747 0.491310
vt 0.761776 0.111524
vt 0.745288 0.109730
vt 0.745288 0.011643
vt 0.761776 0.011643
vt 0.374133 0.782163
vt 0.374133 0.985347
vt 0.330606 0.985347
vt 0.330606 0.782163
vt 0.722689 0.259681
vt 0.762057 0.259681
vt 0.762057 0.722234
vt 0.722689 0.722234
vt 0.640047 0.259680
vt 0.640047 0.722234
vt 0.623688 0.722234
vt 0.623688 0.259681
vt 0.662008 0.163535
vt 0.622326 0.163535
vt 0.622326 0.084727
vt 0.662008 0.084727
vt 0.526053 0.782163
vt 0.526052 0.985347
vt 0.745309 0.084727
vt 0.761798 0.084727
vt 0.661987 0.723360
vt 0.454113 0.434461
vt 0.454050 0.344763
vt 0.537291 0.344690
vt 0.537416 0.434528
vt 0.454050 0.229143
vt 0.537291 0.228880
vt 0.408930 0.434405
vt 0.408890 0.344818
vt 0.414394 0.344815
vt 0.414436 0.434407
vt 0.408890 0.229339
vt 0.414394 0.229330
vt 0.454334 0.738494
vt 0.454165 0.633116
vt 0.537583 0.632983
vt 0.537779 0.738264
vt 0.931060 0.295815
vt 0.931634 0.148318
vt 0.939275 0.148324
vt 0.938701 0.295816
vt 0.409132 0.738597
vt 0.408948 0.633180
vt 0.414356 0.633179
vt 0.414530 0.738587
vt 0.409071 0.524521
vt 0.414575 0.524527
vt 0.856587 0.106343
vt 0.856587 0.125312
vt 0.812934 0.125312
vt 0.812934 0.106343
vt 0.554344 0.632959
vt 0.554548 0.738229
vt 0.537541 0.524967
vt 0.554252 0.524965
vt 0.190357 0.288429
vt 0.015076 0.288429
vt 0.015076 0.226309
vt 0.190357 0.226309
vt 0.015076 0.162515
vt 0.190357 0.162515
vt 0.578724 0.632918
vt 0.578941 0.738178
vt 0.578561 0.524950
vt 0.365638 0.288429
vt 0.365638 0.226309
vt 0.365638 0.162515
vt 0.900239 0.106343
vt 0.900239 0.125312
vt 0.554003 0.344690
vt 0.554123 0.434527
vt 0.554003 0.228880
vt 0.578310 0.344693
vt 0.578424 0.434521
vt 0.578310 0.228893
vt 0.454253 0.524695
vt 0.622305 0.623993
vt 0.622305 0.723360
vt 0.622327 0.569973
vt 0.622327 0.649188
vt 0.624357 0.239844
vt 0.624357 0.706082
vt 0.622305 0.540508
vt 0.423523 0.280067
vt 0.422753 0.018717
vt 0.424825 0.280067
vt 0.424056 0.018717
vt 0.424059 0.541553
vt 0.422756 0.541553
vt 0.745288 0.405428
vt 0.661987 0.405428
vt 0.661987 0.352739
vt 0.745288 0.352739
vt 0.622326 0.334257
vt 0.662008 0.334257
vt 0.662009 0.380979
vt 0.622327 0.380979
vt 0.446551 0.782163
vt 0.446551 0.985347
vt 0.420371 0.985347
vt 0.420371 0.782163
vt 0.761777 0.405428
vt 0.761776 0.352802
vt 0.285747 0.637770
vt 0.010155 0.637770
vt 0.010155 0.612045
vt 0.285747 0.612045
vt 0.745309 0.334257
vt 0.745309 0.380979
vt 0.761798 0.334257
vt 0.761798 0.380979
vt 0.622305 0.405428
vt 0.622305 0.352802
vt 0.931045 0.409655
vt 0.938686 0.409656
vt 0.622327 0.485489
vt 0.662009 0.485489
vt 0.420556 0.782163
vt 0.420556 0.985347
vt 0.761776 0.218048
vt 0.745288 0.217659
vt 0.285747 0.613316
vt 0.010155 0.613316
vt 0.745309 0.485489
vt 0.761798 0.485489
vt 0.761798 0.569973
vt 0.661987 0.217659
vt 0.622305 0.218048
vt 0.931634 0.670987
vt 0.931579 0.557149
vt 0.939219 0.557146
vt 0.939275 0.670984
vn 0.0000 -1.0000 0.0000
vn -0.0046 -1.0000 0.0000
vn 0.0000 0.0000 -1.0000
vn -1.0000 0.0000 0.0000
vn 1.0000 0.0000 0.0000
vn 0.0000 0.0000 1.0000
vn 0.4406 0.8977 0.0000
vn 0.0046 -1.0000 0.0000
vn -0.4406 0.8977 0.0000
vn 0.0000 1.0000 0.0000
vn -0.0038 -0.0000 1.0000
vn 0.0031 0.0000 -1.0000
usemtl Material
s off
f 33/1/1 13/2/1 1/3/1 20/4/1
f 82/5/2 8/6/2 12/7/2 84/8/2
f 46/9/3 36/10/3 6/11/3 15/12/3
f 101/13/4 40/14/4 8/6/4 82/5/4
f 50/15/5 37/16/5 5/17/5 24/18/5
f 44/19/6 41/20/6 7/21/6 16/22/6
f 32/23/7 28/24/7 9/25/7 17/26/7
f 24/18/8 5/17/8 9/27/8 28/28/8
f 16/29/6 7/30/6 11/31/6 18/32/6
f 15/33/3 6/34/3 10/35/3 17/36/3
f 5/37/3 15/33/3 17/36/3 9/38/3
f 8/39/6 16/29/6 18/32/6 12/40/6
f 29/41/9 32/23/9 17/26/9 10/42/9
f 40/43/6 44/19/6 16/22/6 8/44/6
f 37/45/3 46/9/3 15/12/3 5/46/3
f 21/47/1 2/48/1 13/2/1 33/1/1
f 79/49/1 22/50/1 34/51/1 85/52/1
f 22/50/1 21/47/1 33/1/1 34/51/1
f 83/53/9 94/54/9 31/55/9 30/56/9
f 30/57/9 31/58/9 32/23/9 29/41/9
f 90/59/8 23/60/8 27/61/8 92/62/8
f 23/63/8 24/18/8 28/28/8 27/64/8
f 94/54/7 92/65/7 27/66/7 31/55/7
f 31/58/7 27/67/7 28/24/7 32/23/7
f 97/68/5 48/69/5 23/60/5 90/59/5
f 48/70/5 50/15/5 24/18/5 23/63/5
f 36/71/4 52/72/4 25/73/4 6/74/4
f 52/72/4 54/75/4 26/76/4 25/73/4
f 6/74/2 25/73/2 29/77/2 10/78/2
f 25/73/2 26/76/2 30/79/2 29/77/2
f 85/52/1 34/51/1 19/80/1 88/81/1
f 34/51/1 33/1/1 20/4/1 19/80/1
f 21/82/4 22/83/4 53/84/4 51/85/4
f 51/86/10 53/87/10 57/88/10 55/89/10
f 2/90/4 21/82/4 51/85/4 35/91/4
f 103/92/4 111/93/4 52/72/4 36/71/4
f 19/94/5 20/95/5 49/96/5 47/97/5
f 109/98/5 110/99/5 50/15/5 48/70/5
f 88/100/5 19/101/5 47/102/5 95/103/5
f 124/104/5 109/105/5 48/69/5 97/68/5
f 1/106/3 13/107/3 45/108/3 38/109/3
f 104/110/3 108/111/3 46/9/3 37/45/3
f 4/112/6 14/113/6 43/114/6 39/115/6
f 105/116/6 107/117/6 44/19/6 40/43/6
f 14/113/6 3/118/6 42/119/6 43/114/6
f 107/117/6 106/120/6 41/20/6 44/19/6
f 20/95/5 1/121/5 38/122/5 49/96/5
f 110/99/5 104/123/5 37/16/5 50/15/5
f 80/124/4 4/125/4 39/126/4 99/127/4
f 122/128/4 105/129/4 40/14/4 101/13/4
f 13/107/3 2/130/3 35/131/3 45/108/3
f 108/111/3 103/132/3 36/10/3 46/9/3
f 55/133/10 57/134/10 61/135/10 59/136/10
f 54/137/1 52/138/1 56/139/1 58/140/1
f 112/141/3 54/137/3 58/140/3 114/142/3
f 111/143/6 51/144/6 55/145/6 113/146/6
f 115/147/4 116/148/4 62/149/4 60/150/4
f 60/150/4 66/151/4 77/152/4 76/153/4
f 136/154/4 134/155/4 69/156/4 118/157/4
f 137/158/5 133/159/5 72/160/5 68/161/5
f 63/162/1 64/163/1 66/164/1 65/165/1
f 60/150/4 62/149/4 65/166/4 66/151/4
f 58/167/5 56/168/5 64/169/5 63/170/5
f 55/133/10 59/136/10 75/171/10 73/172/10
f 70/173/3 68/174/3 72/175/3 71/176/3
f 117/177/3 68/174/3 70/173/3 118/178/3
f 135/179/5 137/180/5 68/181/5 117/182/5
f 134/183/10 139/184/10 67/185/10 69/186/10
f 140/187/4 138/188/4 70/189/4 71/190/4
f 133/191/1 140/192/1 71/193/1 72/194/1
f 119/195/6 73/196/6 75/197/6 120/198/6
f 74/199/6 76/200/6 77/201/6 78/202/6
f 113/203/5 55/204/5 73/205/5 119/206/5
f 66/164/1 64/163/1 78/207/1 77/208/1
f 64/169/5 56/168/5 74/209/5 78/210/5
f 115/147/4 60/150/4 76/153/4 120/211/4
f 112/212/4 121/213/4 102/214/4 54/215/4
f 121/216/4 122/128/4 101/13/4 102/217/4
f 22/218/4 79/219/4 100/220/4 53/221/4
f 79/222/4 80/124/4 99/127/4 100/223/4
f 106/224/5 123/225/5 98/226/5 41/227/5
f 132/228/10 136/229/10 123/230/10 124/231/10
f 3/232/5 87/233/5 96/234/5 42/235/5
f 87/233/5 88/236/5 95/237/5 96/234/5
f 14/238/1 86/239/1 87/240/1 3/241/1
f 86/239/1 85/52/1 88/81/1 87/240/1
f 41/227/5 98/226/5 89/242/5 7/243/5
f 98/226/5 97/244/5 90/245/5 89/242/5
f 18/246/7 11/247/7 91/248/7 93/249/7
f 93/249/7 91/248/7 92/250/7 94/251/7
f 7/243/8 89/242/8 91/252/8 11/253/8
f 89/242/8 90/245/8 92/254/8 91/252/8
f 12/255/9 18/246/9 93/249/9 84/256/9
f 84/256/9 93/249/9 94/251/9 83/257/9
f 4/258/1 80/259/1 86/239/1 14/238/1
f 80/259/1 79/49/1 85/52/1 86/239/1
f 54/215/4 102/214/4 81/260/4 26/261/4
f 102/217/4 101/13/4 82/5/4 81/262/4
f 26/261/2 81/260/2 83/263/2 30/264/2
f 81/262/2 82/5/2 84/8/2 83/265/2
f 96/234/5 95/237/5 124/266/5 123/225/5
f 42/235/5 96/234/5 123/225/5 106/224/5
f 100/223/4 99/127/4 122/128/4 121/216/4
f 53/221/4 100/220/4 121/213/4 112/212/4
f 59/267/4 115/147/4 120/211/4 75/268/4
f 56/168/5 113/203/5 119/206/5 74/209/5
f 74/199/6 119/195/6 120/198/6 76/200/6
f 139/269/5 135/179/5 117/182/5 67/270/5
f 67/271/3 117/177/3 118/178/3 69/272/3
f 138/188/4 136/154/4 118/157/4 70/189/4
f 59/267/4 61/273/4 116/148/4 115/147/4
f 52/138/6 111/143/6 113/146/6 56/139/6
f 53/87/3 112/141/3 114/142/3 57/88/3
f 45/274/3 35/275/3 103/132/3 108/111/3
f 99/127/4 39/126/4 105/129/4 122/128/4
f 49/96/5 38/122/5 104/123/5 110/99/5
f 43/276/6 42/277/6 106/120/6 107/117/6
f 39/278/6 43/276/6 107/117/6 105/116/6
f 38/279/3 45/274/3 108/111/3 104/110/3
f 95/103/5 47/102/5 109/105/5 124/104/5
f 47/97/5 49/96/5 110/99/5 109/98/5
f 35/91/4 51/85/4 111/93/4 103/92/4
f 62/280/4 116/281/4 132/282/4 128/283/4
f 57/284/5 114/285/5 131/286/5 129/287/5
f 63/288/1 65/289/1 130/290/1 125/291/1
f 65/292/4 62/280/4 128/283/4 130/293/4
f 61/294/10 57/295/10 129/296/10 127/297/10
f 114/285/5 58/298/5 126/299/5 131/286/5
f 58/298/5 63/300/5 125/301/5 126/299/5
f 116/281/4 61/302/4 127/303/4 132/282/4
f 128/304/11 132/228/11 124/231/11 97/305/11
f 129/306/5 131/307/5 135/179/5 139/269/5
f 125/308/1 130/309/1 140/192/1 133/191/1
f 130/310/4 128/311/4 138/188/4 140/187/4
f 127/312/10 129/313/10 139/184/10 134/183/10
f 131/307/5 126/314/5 137/180/5 135/179/5
f 126/314/5 125/315/5 133/316/5 137/180/5
f 132/317/4 127/318/4 134/155/4 136/154/4
f 136/319/12 138/320/12 98/321/12 123/322/12
f 138/320/1 128/304/1 97/305/1 98/321/1
o Cube.001
v 9.810349 1.851000 10.668473
v 9.810349 5.317703 10.668473
v 9.810349 1.851000 6.195419
v 9.810349 5.317703 6.195419
v 9.974294 1.851000 10.668473
v 9.974294 5.317703 10.668473
v 9.974294 1.851000 6.195419
v 9.974294 5.317703 6.195419
vt 0.375000 0.000000
vt 0.625000 0.000000
vt 0.625000 0.250000
vt 0.375000 0.250000
vt 0.625000 0.500000
vt 0.375000 0.500000
vt 0.625000 0.750000
vt 0.375000 0.750000
vt 0.625000 1.000000
vt 0.375000 1.000000
vt 0.125000 0.500000
vt 0.125000 0.750000
vt 0.875000 0.500000
vt 0.875000 0.750000
vn -1.0000 0.0000 0.0000
vn 0.0000 0.0000 -1.0000
vn 1.0000 0.0000 0.0000
vn 0.0000 0.0000 1.0000
vn 0.0000 -1.0000 0.0000
vn 0.0000 1.0000 0.0000
usemtl Material.001
s off
f 141/323/13 142/324/13 144/325/13 143/326/13
f 143/326/14 144/325/14 148/327/14 147/328/14
f 147/328/15 148/327/15 146/329/15 145/330/15
f 145/330/16 146/329/16 142/331/16 141/332/16
f 143/333/17 147/328/17 145/330/17 141/334/17
f 148/327/18 144/335/18 142/336/18 146/329/18
